<svg viewBox="0 0 34 34" xmlns="http://www.w3.org/2000/svg" aria-labelledby="linkTitleID linkDescID">
  <title id="linkTitleID">Link icon</title>
  <desc id="linkDescID">Two chain links linked together</desc>
  <path d="m7.80511706 12.3659763c1.2669254-2.2579539 4.09819784-2.9949938 6.41200864-1.7733458l.2295791.12871 1.6067188.9559859 3.5467013-6.31849361c1.2682451-2.26030597 4.104098-2.99652769 6.4192376-1.76952182l.2223501.12488594 3.2168204 1.91103915c2.2770002 1.3527136 3.1866331 4.21502324 2.0564431 6.51290984l-.1198433.2278304-5.2002499 9.2680474c-1.2669254 2.2579539-4.0981978 2.9949938-6.4120086 1.7733458l-.2295791-.12871-1.6096554-.9558482-3.5437647 6.3183559c-1.2682451 2.260306-4.104098 2.9965277-6.41923761 1.7695218l-.22235013-.1248859-3.21682032-1.9110392c-2.27700024-1.3527136-3.18663314-4.2150232-2.05644312-6.5129098l.11984332-.2278304zm13.93955474-5.73311741-3.563271 6.35055051c1.889633 1.4530595 2.5776248 4.0429866 1.5410255 6.156875l-.1223014.2328355-.4183304.7430134 1.6096554.9558483c1.1431442.6791157 2.5155496.3977368 3.1667361-.5628389l.0921501-.1491451 5.2002498-9.2680474c.5752467-1.0252226.2110342-2.4011579-.8559335-3.14755806l-.1742742-.11247814-3.2168203-1.91103915c-1.1402863-.67741793-2.5086889-.39913772-3.1618387.55564729zm-11.79500786 7.00714351-5.20024982 9.2680474c-.57524673 1.0252226-.21103426 2.4011579.85593348 3.1475581l.17427416.1124781 3.21682032 1.9110392c1.14028632.6774179 2.50868892.3991377 3.16183872-.5556473l.0970474-.1563368 3.5622708-6.3513198c-1.8888875-1.4532134-2.5764504-4.042623-1.5400057-6.1561456l.1222818-.2327956.4153938-.7428758-1.6067188-.9559859c-1.1431442-.6791157-2.5155496-.3977368-3.1667361.5628389zm6.97653866 1.5796652-.3817806.6812386c-.5117123.9119895-.2800268 2.1014993.528439 2.8785267l.382717-.6803391c.5119098-.9123415.2798478-2.1024176-.5293754-2.8794262z" class="fill-color" />
</svg>
