<svg
  viewBox="0 0 100 100"
  xmlns="http://www.w3.org/2000/svg"
  aria-labelledby="shareTitleID shareDescID"
>
  <title id="shareTitleID">Share icon</title>
  <desc id="shareDescID">A square with an arrow arcing out from the center of the square</desc>
  <g class="fill-color">
    <path d="M70.6784759,10 L70.6784759,21.3240186 C64.5020053,21.66334 58.9104278,22.5826126 53.9037433,24.0818363 C48.8970588,25.5810601 44.8495989,27.4085163 41.7613636,29.5642049 C38.6731283,31.7198935 35.9982175,34.0552229 33.736631,36.5701929 C31.4750446,39.085163 29.8217469,41.5657574 28.776738,44.011976 C27.7317291,46.4581947 26.9173351,48.6848525 26.3335561,50.6919494 C25.7497772,52.6990464 25.4088681,54.3324462 25.3108289,55.592149 L25.2372995,57.4085163 C29.0296346,54.1661122 33.1751337,51.5524507 37.6737968,49.5675316 C42.1724599,47.5826126 46.2934492,46.3118208 50.0367647,45.7551564 C53.7800802,45.1984919 57.2571301,44.8713684 60.4679144,44.7737858 C63.6786988,44.6762031 66.1831551,44.7726769 67.9812834,45.0632069 L70.6784759,45.499002 L70.6784759,57.4051896 L100,33.3765802 L70.6784759,10 Z M76.4438503,62.4883566 L82.8609626,57.1157685 C82.9099822,57.0669772 82.9946524,57.0303837 83.1149733,57.005988 C83.2352941,56.9815924 83.4536542,56.9571967 83.7700535,56.9328011 C84.0864528,56.9084054 84.3905971,56.9449989 84.6824866,57.0425815 C84.9743761,57.1401641 85.217246,57.2854291 85.4110963,57.4783766 C85.6049465,57.671324 85.7263815,57.8409847 85.7754011,57.9873586 L85.8489305,58.2035928 L85.8489305,90 L0,90 L0,17.910845 L43.1784759,17.910845 C43.2765152,17.9596363 43.410205,18.0317143 43.5795455,18.1270792 C43.7488859,18.222444 43.9438503,18.4519849 44.1644385,18.8157019 C44.3850267,19.1794189 44.469697,19.5542249 44.4184492,19.9401198 C44.4184492,20.2794411 44.3092692,20.582169 44.0909091,20.8483034 C43.872549,21.1144378 43.6664439,21.3206919 43.4725936,21.4670659 L43.1818182,21.6134398 C40.557041,23.06609 38.2954545,24.396762 36.3970588,25.6054558 L30.7820856,29.8170326 L11.5274064,29.8170326 L11.5274064,78.1669993 L74.1811497,78.1669993 L74.1811497,65.5355955 C74.1811497,65.1009093 74.3995098,64.6407186 74.8362299,64.1550233 L76.4438503,62.4883566 Z" id="Shape"></path>
  </g>
</svg>




 