<svg viewBox="0 0 12 12" xmlns="http://www.w3.org/2000/svg" aria-labelledby="calendarTitleID calendarDescID">
  <title id="calendarTitleID">Calendar icon</title>
  <desc id="calendarDescID">An illustration of a calendar</desc>

  <g class="fill-color" fill-rule="evenodd">
    <path d="m11.998.857v11h-11.998v-11z" fill-rule="nonzero" />
    <path d="m11.143 3h-10.286v8h10.286z" fill="#fff" fill-rule="nonzero" />
    <path d="m9 0h1v1h-1z" />
    <path d="m2.143 0h1v1h-1z" />
    <path d="m2.143.857h1v1h-1z" fill="#fff" />
    <path d="m9 .857h1v1h-1z" fill="#fff" />
    <path
      d="m4.92342857 9.14285714v-4.2h-.678c-.02400012.1600008-.07399962.29399946-.15.402s-.16899945.19499967-.279.261-.23399931.11199987-.372.138-.28099926.03700002-.429.033v.642h1.056v2.724zm3.336 0h-.852v-2.724h-1.056v-.642c.14800074.00400002.29099931-.00699987.429-.033s.26199945-.07199967.372-.138.20299962-.15299946.279-.261.12599988-.2419992.15-.402h.678z"
      fill-rule="nonzero"
    />
  </g>
</svg>
