<svg
  viewBox="0 0 40 40"
  xmlns="http://www.w3.org/2000/svg"
  aria-labelledby="ellipsesTitleID ellipsesDescID"
>
  <title id="ellipsesTitleID">Ellipses icon</title>
  <desc id="ellipsesDescID">An illustration of text ellipses.</desc>
  <path class="fill-color" d="m10.5 17.5c1.3807119 0 2.5 1.1192881 2.5 2.5s-1.1192881 2.5-2.5 2.5c-1.38071187 0-2.5-1.1192881-2.5-2.5s1.11928813-2.5 2.5-2.5zm9.5 0c1.3807119 0 2.5 1.1192881 2.5 2.5s-1.1192881 2.5-2.5 2.5-2.5-1.1192881-2.5-2.5 1.1192881-2.5 2.5-2.5zm9.5 0c1.3807119 0 2.5 1.1192881 2.5 2.5s-1.1192881 2.5-2.5 2.5-2.5-1.1192881-2.5-2.5 1.1192881-2.5 2.5-2.5z" fill-rule="evenodd"/>
</svg>
