<svg viewBox="0 0 34 34" xmlns="http://www.w3.org/2000/svg" aria-labelledby="pinterestTitleID pinterestDescID">
  <title id="pinterestTitleID">Pinterest icon</title>
  <desc id="pinterestDescID">A stylized letter p</desc>
  <path d="m11.9051049 30.5873434.653491-1.0742755.4207845-.839975c.2805229-.591861.5371377-1.2533214.7698443-1.9843813.2327065-.7310599.4659444-1.6029125.6997135-2.6155579.2337692-1.0126455.4128151-1.752206.5371377-2.2186817.0308151.030815.0775689.0855382.1402615.1641697.0626927.0786314.1094465.1333547.1402615.1641697.1243227.1870153.2178304.311338.280523.372968 1.1210293.964829 2.3817888 1.4631823 3.7822785 1.4950599 1.4939973 0 2.8790795-.3426843 4.1552465-1.0280529 2.1166733-1.1826593 3.6733633-3.1128487 4.6700699-5.7905679.4048457-1.1518444.6848374-2.5996192.8399751-4.3433245.1243226-1.587505-.0781002-3.0974411-.6072685-4.5298084-.903199-2.36638128-2.5528653-4.20306294-4.948999-5.51004497-1.276167-.65349101-2.5990879-1.05833667-3.9687625-1.21453696-1.525875-.21783034-3.1293188-.17107651-4.8103315.14026149-2.7701643.52916833-5.02709913 1.743174-6.77080442 3.64201699-1.99235065 2.14748836-2.98852598 4.62225355-2.98852598 7.42429545 0 2.9571797.9494215 5.0584455 2.84826449 6.3037975l.83997504.4207845c.12432268 0 .22526845.0154075.3028373.0462225s.1551377.0074381.23270656-.0701308c.07756885-.0775688.13229208-.1243226.16416969-.1402614s.07066204-.0860696.11635328-.2103923c.04569124-.1243226.07703756-.2098609.09403895-.2566147.01700139-.0467539.04834771-.1476996.09403895-.3028373s.06906816-.2486454.07013074-.280523l.14026149-.5132295c.06269263-.311338.09403895-.5291684.09403895-.653491-.03081502-.1243227-.12432268-.2799917-.28052297-.467007-.15620029-.1870154-.23376915-.2959305-.23270656-.3267455-.62267599-.8096914-.9494215-1.7904592-.98023652-2.9423035-.03081502-1.55669.28052297-2.9731185.93401399-4.24928547 1.18265932-2.45882635 3.17501002-3.93741618 5.97705192-4.43576949 1.6183201-.311338 3.1356943-.25661476 4.5521228.16416969 1.4164285.42078446 2.5135496 1.09765239 3.2913633 2.03060379.8405063 1.02752164 1.3229208 2.28828114 1.4472435 3.78227848.1243227 1.4004897-.0313463 2.9725872-.467007 4.7162925-.3740306 1.3696746-.9186065 2.5528653-1.6337275 3.5495719-.9967066 1.245352-2.0863896 1.8834355-3.269049 1.9142505-1.7118277.0626926-2.7547568-.6375522-3.1287874-2.1007345-.0935077-.4664757 0-1.2134744.2805229-2.240996.7469987-2.5842117 1.1359055-3.9384788 1.1667206-4.0628015.1870153-1.0275216.2024228-1.7904591.0462225-2.2888124-.1870153-.65349104-.5759222-1.15928246-1.1667205-1.51737429-.5907984-.35809182-1.2756357-.39687625-2.054512-.11635327-1.1826594.43566067-1.9610044 1.40048968-2.335035 2.89448706-.311338 1.306982-.2491767 2.6299028.186484 3.9687625 0 .0626926.0313463.1402615.094039.2327065.0626926.0924451.0940389.1700139.0940389.2327066 0 .0935076-.0313463.2491766-.0940389.467007-.0626927.2178303-.094039.3580918-.094039.4207844-.0935076.4356607-.3038999 1.3308903-.6311767 2.6856887-.3272768 1.3547985-.5838915 2.3897582-.7698443 3.1048793-.7778136 3.2068876-1.12049796 5.5881451-1.02805289 7.1437725l.37296809 2.7558194c.653491-.591861 1.2294131-1.2299445 1.7277664-1.9142505z" class="fill-color" />
</svg>
