<svg viewBox="0 0 34 34" xmlns="http://www.w3.org/2000/svg" aria-labelledby="twitterTitleID twitterDescID">
  <title id="twitterTitleID">Twitter icon</title>
  <desc id="twitterDescID">The Twitter logo, a cartoon bird</desc>
  <path d="m31.5297453 8.76273313c-.3135031.40766104-.7447036.83083673-1.2936015 1.26952707-.5488979.4386904-.9169698.7837578-1.1042157 1.0352022.1562166 2.319709-.1417719 4.5297454-.8939653 6.6301092-.7521935 2.1003638-1.8023754 3.9182538-3.1505457 5.45367-1.3481704 1.5354162-2.9627648 2.8284828-4.8437835 3.8791996-1.8810186 1.0507169-3.8321207 1.7483416-5.8533062 2.092874s-4.1215493.2894286-6.30109136-.1653114c-2.17954205-.45474-4.2092874-1.3401455-6.08923604-2.6562165 2.72737.4697196 5.67408517-.2514445 8.8401455-2.1634924-3.0719024-.7521935-4.88979241-2.2881447-5.45367-4.6078537 1.12882516.0631287 1.86550396.0631287 2.21003638 0-2.91568586-1.2850417-4.38904344-3.3693558-4.42007276-6.2529424.21934517.0310293.53284828.1487267.94050931.3530922s.78375775.3060133 1.12829017.3049433c-.81532206-.7211641-1.41076396-1.9045581-1.7863257-3.5501819-.37556173-1.64562376-.17173122-3.17355015.61149155-4.58377912 1.81789001 1.88101862 3.6908838 3.36989086 5.61898138 4.46661672 1.92809757 1.0967259 4.22426707 1.7547614 6.88850847 1.9741066-.2503745-1.1908838-.1722662-2.32719882.2343248-3.40894502.4065911-1.0817462 1.0416221-1.93612241 1.9050931-2.56312861.863471-.62700621 1.8114702-1.0817462 2.8439975-1.36421999 1.0325272-.28247378 2.0827091-.27444896 3.1505456.02407447s1.9767815.87042585 2.726835 1.71570726c1.3791997-.37663172 2.6802911-.87845068 3.9032742-1.50545688-.0310293.37663171-.1407019.74470361-.3290178 1.1042157-.1883158.35951209-.3530922.62593623-.4943291.79927242s-.3841216.4317355-.728654.77519795c-.3445324.34346244-.5638776.57832227-.6580355.70457949.2193452-.09415792.6895998-.23539482 1.410764-.42371067.7211641-.18831586 1.2069334-.39214638 1.4573079-.61149155 0 .44350524-.1567516.86668093-.4702547 1.27434196z" class="fill-color" />
</svg>
