<?xml version="1.0" encoding="UTF-8"?>
<svg width="24px" height="24px" viewBox="0 0 24 24" version="1.1" xmlns="http://www.w3.org/2000/svg" xmlns:xlink="http://www.w3.org/1999/xlink">
    <!-- Generator: Sketch 51.1 (57501) - http://www.bohemiancoding.com/sketch -->
    <title>Spotify</title>
    <desc>Created with Sketch.</desc>
    <defs></defs>
    <g id="Symbols" stroke="none" stroke-width="1" fill="none" fill-rule="evenodd">
        <g id="button-/-spotify" transform="translate(-3.000000, -2.000000)" fill="#00DA5A" fill-rule="nonzero">
            <path d="M21.6860323,12.6640688 C17.9930373,10.471353 11.8188114,10.2405408 8.29892552,11.3368987 C7.72189505,11.5100079 7.14486459,11.1637896 6.97175545,10.6444622 C6.79864631,10.0674317 7.14486459,9.49040123 7.66419201,9.31729209 C11.7611083,8.10552811 18.5123648,8.3363403 22.7823902,10.8752743 C23.3017176,11.1637896 23.4748268,11.8562261 23.1863115,12.3755536 C22.8977963,12.7794749 22.2053597,12.952584 21.6860323,12.6640688 M21.5706262,15.8954394 C21.282111,16.2993607 20.7627836,16.4724699 20.3588623,16.1839546 C17.2428977,14.2797541 12.5112479,13.7027236 8.87595598,14.8567846 C8.41433161,14.9721907 7.89500419,14.7413785 7.7795981,14.2797541 C7.66419201,13.8181297 7.89500419,13.2988023 8.35662856,13.1833962 C12.568951,11.9139292 17.7622252,12.5486627 21.339814,14.7413785 C21.6860323,14.9144876 21.8591415,15.4915181 21.5706262,15.8954394 M20.1857531,19.069107 C19.9549409,19.4153252 19.5510196,19.5307313 19.2048013,19.2999191 C16.4927581,17.6265308 13.0882784,17.2803125 9.04906512,18.2035613 C8.6451438,18.3189674 8.29892552,18.0304521 8.18351942,17.6842338 C8.06811333,17.2803125 8.35662856,16.9340942 8.70284684,16.8186881 C13.0882784,15.8377364 16.8966795,16.2416577 19.8972379,18.0881552 C20.3011592,18.2612643 20.3588623,18.7228887 20.1857531,19.069107 M14.8770728,2.3929265 C8.5297377,2.3929265 3.33646351,7.58620069 3.33646351,13.9335358 C3.33646351,20.2808709 8.5297377,25.4741451 14.8770728,25.4741451 C21.2244079,25.4741451 26.4176821,20.2808709 26.4176821,13.9335358 C26.4176821,7.58620069 21.282111,2.3929265 14.8770728,2.3929265" id="Spotify"></path>
        </g>
    </g>
</svg>