<svg height="24" viewBox="0 0 16 24" width="16" xmlns="http://www.w3.org/2000/svg" aria-labelledby="bookmarkTitleID bookmarDescID"><title id="bookmarkTitleID">Bookmark icon</title><desc id="bookmarkDescID">An outline of the shape of a bookmark</desc><g class="filled"><path d="m1 0h14c.5522847 0 1 .44771525 1 1v23l-8-5.4545455-8 5.4545455v-23c0-.55228475.44771525-1 1-1z" fill="#fff" fill-rule="evenodd"/></g><g class="hollow" fill="#fff" fill-rule="evenodd"><path d="m15 0c.5522847 0 1 .44771525 1 1v23l-8-5.4545455-8 5.4545455v-23c0-.55228475.44771525-1 1-1zm-2 2h-10c-.51283584 0-.93550716.38604019-.99327227.88337887l-.00672773.11662113v18l6-4.3181818 6 4.3181818v-18c0-.51283584-.3860402-.93550716-.8833789-.99327227z"/><path class="plus" d="m8.75 6v2.25h2.25v1.5h-2.25v2.25h-1.5v-2.25h-2.25v-1.5h2.25v-2.25z" fill-rule="nonzero"/><path class="minus" d="m11 8.25v1.5h-6v-1.5z" fill-rule="nonzero"/></g></svg>
