<svg
  viewBox="0 0 40 40"
  xmlns="http://www.w3.org/2000/svg"
  aria-labelledby="textsTitleID textsDescID"
>
  <title id="textsTitleID">Texts icon</title>
  <desc id="textsDescID">An illustration of an open book.</desc>
  <path class="fill-color" d="m10.3323235 11.0007023h6.9060825c.8851083 0 1.5847122.3064258 2.0988114.9192774v14.4324451h-.6460032c-.1435563-.120323-.3528315-.2434552-.6278257-.3693964-.2749942-.1259413-.5201585-.2191097-.7354929-.2795053l-.3048241-.1081503h-5.7042647c-.3108832 0-.5621067-.0601615-.7536705-.1804846-.0717781-.0599274-.1256117-.1439663-.1615008-.2521166-.0358891-.1081502-.0598928-.2043619-.0720112-.2886348v-13.8741368zm19.1752505 0v13.603761c-.0717781.3361555-.2211606.5943584-.4481473.7746089-.0717781.0599274-.1733862.1079162-.304824.1439663-.1314379.0360501-.2451643.0601615-.3411793.0723343h-5.5965975c-.9568865.2640552-1.5068748.5164059-1.649965.757052h-.6634817v-14.4324451c.5140992-.6128516 1.2076439-.9192774 2.0806339-.9192774h6.92426zm1.3814961.6489017-.1796783 15.2976474c-.0955489 0-1.0342578.0119386-2.8161268.035816-1.7818691.0238773-3.3006293.0898911-4.5562806.1980414-1.2556514.1081503-1.9613144.2884008-2.1169891.5407514-.0955488.1924233-.5439291.273419-1.345141.2429871-.8012118-.0304319-1.3155441-.1776755-1.5429969-.4417308-.334654-.3843783-3.4558378-.5765674-9.36355164-.5765674v-15.3875385l-.96830576.3960828v16.2702977c6.4096947-.2041278 9.7760429-.0840388 10.0990445.3602669.2391051.276228.9864833.414342 2.2421347.414342.1915638 0 .4187835-.0210682.6816593-.0632047s.4810068-.0870821.6543929-.1348367c.1733862-.0477547.2719646-.0838048.2957353-.1081503.0838965-.1563732.9599161-.2675666 2.6280587-.3335805 1.6681426-.0660138 3.3213703-.0931684 4.9596831-.0814638l2.4392915.0182591v-16.2344816z"/>
</svg>
