<?xml version="1.0" encoding="UTF-8"?>
<svg width="24px" height="24px" viewBox="0 0 24 24" version="1.1" xmlns="http://www.w3.org/2000/svg" xmlns:xlink="http://www.w3.org/1999/xlink">
    <!-- Generator: Sketch 51.1 (57501) - http://www.bohemiancoding.com/sketch -->
    <title>button / spotify with border</title>
    <desc>Created with Sketch.</desc>
    <defs></defs>
    <g id="button-/-spotify-with-border" stroke="none" stroke-width="1" fill="none" fill-rule="evenodd">
        <path d="M18.6860323,10.6640688 C14.9930373,8.47135302 8.81881136,8.24054083 5.29892552,9.33689872 C4.72189505,9.51000786 4.14486459,9.16378958 3.97175545,8.64446216 C3.79864631,8.06743169 4.14486459,7.49040123 4.66419201,7.31729209 C8.76110831,6.10552811 15.5123648,6.3363403 19.7823902,8.87527435 C20.3017176,9.16378958 20.4748268,9.85622614 20.1863115,10.3755536 C19.8977963,10.7794749 19.2053597,10.952584 18.6860323,10.6640688 M18.5706262,13.8954394 C18.282111,14.2993607 17.7627836,14.4724699 17.3588623,14.1839546 C14.2428977,12.2797541 9.51124792,11.7027236 5.87595598,12.8567846 C5.41433161,12.9721907 4.89500419,12.7413785 4.7795981,12.2797541 C4.66419201,11.8181297 4.89500419,11.2988023 5.35662856,11.1833962 C9.56895096,9.91392918 14.7622252,10.5486627 18.339814,12.7413785 C18.6860323,12.9144876 18.8591415,13.4915181 18.5706262,13.8954394 M17.1857531,17.069107 C16.9549409,17.4153252 16.5510196,17.5307313 16.2048013,17.2999191 C13.4927581,15.6265308 10.0882784,15.2803125 6.04906512,16.2035613 C5.6451438,16.3189674 5.29892552,16.0304521 5.18351942,15.6842338 C5.06811333,15.2803125 5.35662856,14.9340942 5.70284684,14.8186881 C10.0882784,13.8377364 13.8966795,14.2416577 16.8972379,16.0881552 C17.3011592,16.2612643 17.3588623,16.7228887 17.1857531,17.069107 M11.8770728,0.392926499 C5.5297377,0.392926499 0.336463512,5.58620069 0.336463512,11.9335358 C0.336463512,18.2808709 5.5297377,23.4741451 11.8770728,23.4741451 C18.2244079,23.4741451 23.4176821,18.2808709 23.4176821,11.9335358 C23.4176821,5.58620069 18.282111,0.392926499 11.8770728,0.392926499" id="Spotify-Copy" fill="#00DA5A" fill-rule="nonzero"></path>
        <circle id="Oval-4" stroke="#FFFFFF" cx="12" cy="12" r="11.5"></circle>
    </g>
</svg>