<?xml version="1.0" encoding="UTF-8"?>
<svg width="24px" height="24px" viewBox="0 0 24 24" version="1.1" xmlns="http://www.w3.org/2000/svg" xmlns:xlink="http://www.w3.org/1999/xlink">
    <!-- Generator: Sketch 51.1 (57501) - http://www.bohemiancoding.com/sketch -->
    <title>Layer_x0020_1 Copy</title>
    <desc>Created with Sketch.</desc>
    <defs></defs>
    <g id="Symbols" stroke="none" stroke-width="1" fill="none" fill-rule="evenodd">
        <g id="button-/-youtube" transform="translate(-3.000000, -2.000000)">
            <g id="youtube" transform="translate(0.129297, 0.236676)">
                <g id="Layer_x0020_1-Copy" transform="translate(3.179297, 2.248576)">
                    <path d="M23.3887363,11.6944881 C23.3887363,18.1529281 18.1529281,23.388702 11.6944538,23.388702 C5.23577391,23.388702 0,18.1529281 0,11.6945223 C0,5.23577391 5.23577391,4.4408921e-16 11.6944538,4.4408921e-16 C18.1529281,4.4408921e-16 23.3887363,5.23577391 23.3887363,11.6945223 L23.3887363,11.6944881 Z" id="Shape" fill="#D32F2F"></path>
                    <path d="M21.7870426,11.6943168 C21.7870426,17.268108 17.2681765,21.7870084 11.6943853,21.7870084 C6.12055978,21.7870084 1.60172794,17.268108 1.60172794,11.6943168 C1.60172794,6.12052552 6.12059404,1.60165942 11.6943853,1.60165942 C17.2681765,1.60165942 21.7870426,6.12049126 21.7870426,11.6943168 Z" id="Shape" fill="#D32F2F"></path>
                    <path d="M18.5465165,8.94622153 C18.5465165,8.94127125 18.5463681,8.93636143 18.5463277,8.93141116 L18.5463277,7.46731238 C18.5463277,7.15324577 18.2893848,6.8963043 17.9753196,6.8963043 L16.1213771,6.8963043 C16.11149,6.8963043 16.1016569,6.89656058 16.0918912,6.89705966 L7.26712435,6.89705966 L6.88991949,6.89705966 L5.4131819,6.89705966 C5.09911529,6.89705966 4.84217382,7.1540025 4.84217382,7.46806774 L4.84217382,8.9462203 L4.84217382,14.4406977 L4.84217382,15.9214267 C4.84217382,16.2354933 5.09911666,16.4924348 5.4131819,16.4924348 L7.26712435,16.4924348 C7.28548223,16.4924348 7.30363783,16.4915176 7.32155042,16.4898045 L16.0753289,16.4898045 C16.0905169,16.491032 16.1058669,16.4916794 16.1213518,16.4916794 L17.9752942,16.4916794 C18.2893608,16.4916794 18.5463023,16.2347366 18.5463023,15.9206713 L18.5463023,12.4427177 L18.5464912,8.94622896 L18.5465165,8.94622153 Z M10.3235411,14.011445 L10.3235411,8.85049678 L14.2374295,11.4312279 L10.3235411,14.011445 Z" id="Shape" fill="#FFFFFF"></path>
                </g>
            </g>
        </g>
    </g>
</svg>