<svg viewBox="0 0 34 34" xmlns="http://www.w3.org/2000/svg" aria-labelledby="emailTitleID emailDescID">
  <title id="emailTitleID">Email icon</title>
  <desc id="emailDescID">An illustration of an envelope</desc>
  <path d="m32 7.04156803v19.91686397c0 .5752421-.4763773 1.041568-1.0640184 1.041568h-27.87196316c-.58764116 0-1.06401844-.4663259-1.06401844-1.041568v-19.91686397c0-.57524214.47637728-1.04156803 1.06401844-1.04156803h27.87196316c.5876411 0 1.0640184.46632589 1.0640184 1.04156803zm-26.25039901 1.19676167 10.04327011 10.1323738c.5135662.4194048.8817166.6291071 1.1044511.6291071.1198794 0 .2695514-.0503424.4490158-.1510273.1794644-.100685.3291364-.2013699.4490158-.3020548l.1798191-.1510273 10.1198794-10.15841306zm16.77212271 9.7303286 6.8831353 6.7889404v-13.5778809zm-17.92871075-6.6379131v13.350819l6.78098955-6.6629107zm22.09008685 14.2059464-5.9074304-5.8588202-.9757049.9551179-.3594018.3295984c-.0342324.0304241-.0665646.0587822-.0969964.0850743l-.1597867.1329606c-.0684912.0540844-.1198794.0895749-.1541644.1064714-.6674943.3687151-1.3523675.5530727-2.0546196.5530727-.65047 0-1.3782586-.218035-2.1833659-.6541048l-.6682036-.4520405-1.0278418-1.0311524-5.95850326 5.832781z" class="fill-color" />
</svg>
